<?xml version="1.0" encoding="UTF-8"?>
<svg version="1.1" viewBox="0 0 1181 1181" width="1181" height="1181" xmlns="http://www.w3.org/2000/svg">
<path transform="translate(270,443)" d="m0 0h23l6 9 14 24 34 58 16 27 28 48 10 17 4-5 14-24 17-29 16-28 16-27 13-23 14-24 13-22 1-1h22l1 7-1 244h-25l-1-1-1-195-12 21-10 17-51 87-15 26-8 13h-13l-4-5-17-29-16-27-15-26-13-22-17-29-15-25-1 52-1 143h-25l-1-1z" fill="#1C5DD6"/>
<path transform="translate(115,503)" d="m0 0h15l18 3 16 6 15 9 15 15 9 14 6 14 4 16 1 9v18l-6 1h-152l4 18 8 16 8 10 10 8 17 8 13 3h28l15-4 12-6 12-9 5-4 11 12 3 5-7 8-12 9-16 8-14 4-15 2h-18l-16-2-16-5-16-8-11-8-10-10-9-13-7-15-4-15-1-8v-26l3-15 5-15 8-14 8-10 9-9 14-9 11-5 9-3 9-2zm-2 23-16 4-12 6-11 9-9 12-5 11-3 10-1 9 1 1h131v-7l-4-15-6-11-8-10-9-8-14-7-10-3-7-1z" fill="#275ED6"/>
<path transform="translate(656,504)" d="m0 0h34l15 3 16 7 10 8 8 9 7 14 3 11 1 7v131h-24l-1-1v-25h-2l-3 6h-2l-1 3-11 8-12 6-16 4-9 1h-17l-14-2-15-5-12-7-10-10-7-13-2-9v-20l3-10 4-8 9-10 11-7 11-4 13-3 10-1h71l-1-22-4-14-6-9-8-7-11-5-7-2-8-1h-16l-13 2-11 3-15 6-12 8-4 2-11-17 2-4 5-4 14-8 15-6zm9 102-15 1-12 3-10 5-7 8-4 12v9l3 11 8 10 10 6 16 4h21l16-4 12-6 11-10 9-14 1-3v-31l-1-1z" fill="#B340AA"/>
<path transform="translate(1070,503)" d="m0 0h16l21 3 17 5 12 5 7 4-1 6-9 16-5-2-14-7-14-4-13-2h-22l-17 4-9 5-5 5-4 7-1 3v11l4 9 7 6 11 5 16 4 35 7 16 5 16 8 9 9 6 12 1 5v19l-3 10-6 10-4 5-11 8-10 5-13 4-10 2-10 1h-21l-21-3-19-5-17-8-9-6-1-3 10-17 3-2 11 7 14 6 9 3 14 3 10 1h18l14-2 13-5 8-7 4-10v-11l-4-8-7-6-12-5-22-5-27-5-16-5-14-7-10-9-6-10-2-6-1-7v-14l4-13 7-11 7-7 14-8 14-5 11-2z" fill="#370C6B"/>
<path transform="translate(891,503)" d="m0 0h15l18 3 15 5 14 8 12 11 7 10-5 5-10 7-5 2-9-10-7-6-14-7-11-3-14-1-13 1-14 4-12 6-10 8-9 11-6 12-4 14-1 9v16l3 16 5 13 7 10 7 8 10 7 13 6 12 3h26l14-4 11-6 10-8 7-8 11 7 8 6-4 7-9 10-12 9-15 7-17 4-9 1h-16l-16-2-16-5-16-8-11-9-10-10-9-14-4-8-5-15-2-11-1-16 2-20 5-17 7-14 9-12 11-11 14-9 14-6 10-3 9-2z" fill="#49138B"/>
<path transform="translate(509,443)" d="m0 0h22l1 7-1 244h-25l-1-1-1-195-12 21-10 17-34 58-9 15-3-1-8 7-3 3-5 2h-4l-5-2h-3l2-5 13-23 13-22 16-28 16-27 13-23 14-24 13-22z" fill="#628BD5"/>
<path transform="translate(115,503)" d="m0 0h15l18 3 16 6 15 9 15 15 9 14 6 14 4 16 1 9v18h-2l-1-19-4 2-8 5-3 3-8 4-8-1-6-3-6-5-3-3h-94l-5 2-3 1-2 4-10 10-7 11-5 10-2 5 1 7-2-2-5-18-1-8v-26l3-15 5-15 8-14 8-10 9-9 14-9 11-5 9-3 9-2zm-2 23-16 4-12 6-11 9-9 12-5 11-3 10-1 9 1 1h131v-7l-4-15-6-11-8-10-9-8-14-7-10-3-7-1z" fill="#2160D6"/>
<path transform="translate(1070,503)" d="m0 0h16l21 3 17 5 12 5 7 4-1 6-9 16-5-2-14-7-14-4-13-2h-22l-17 4-9 5-5 5-4 7-1 3v11l4 9 7 6 11 5 16 4 25 5-2 2-6-1-3 7-4 7-2 4 8 2v1l-12-1-23-5-16-5-11-6-10-9-6-10-2-6-1-7v-14l4-13 7-11 7-7 14-8 14-5 11-2z" fill="#8E4DC9"/>
<path transform="translate(315,483)" d="m0 0 3 1 16 28 15 25 15 26 13 22 14 24 10 17 4-5 2-3 4-1 5 2 9-3 2-1 5-4 5-5 1 5-15 26-15 25h-13l-4-5-17-29-16-27-15-26-13-22-17-29-3-5-1-10 2-10v-7z" fill="#042F80"/>
<path transform="translate(530,462)" d="m0 0h1v231h-24l-1-39v-37l1-65 1-1 1-11 2-2 5-30 1-5 1-9 4-11-1-3 2-2 1-3 1-1-1-2 4-8z" fill="#431186"/>
<path transform="translate(747,583)" d="m0 0h2l1 10v101h-24l-1-1v-25h-2l-3 6h-2l-1 3-11 8-12 6-16 4-9 1h-17l-14-2-15-5-12-7-7-7v-6l6-2 2-2 7 1 5 6h2l3 3h2v2l12 2 9-3 2-1 21-1 16-4 12-6 10-9 9-14 2-1 3-8 3-9 2-10 5-10 5-12 1-3h2z" fill="#481289"/>
<path transform="translate(891,503)" d="m0 0h15l18 3 15 5 14 8 12 11 7 10-5 5-10 7-5 2-9-10-7-6-14-7-11-3-14-1-13 1-14 4-12 6-10 8-4 3-4-2-4 1-2 2h-2l-4 3-5 5-6 12-4 10-4 8-5 6-2 4h-1v-13l3-15 6-16 9-14 9-10 9-8 13-8 17-7 14-3z" fill="#7124CC"/>
<path transform="translate(653,587)" d="m0 0h70l2 4-3 4h-2l-1 6 2 3 1 2-57 1-15 1-12 3-10 5-6 7-4 12v9l3 11 7 9 10 6 16 4v2l-8 3-4 1-8-1v-2l-5-1-8-6-3-3-6-1-4 3h-3l-1 5-5-5-5-10-2-9v-20l3-10 4-8 9-10 11-7 11-4 13-3zm66 13 2 1z" fill="#B43FA9"/>
<path transform="translate(106,504)" d="m0 0 2 1-2 5v15l1 3-12 4-10 5-10 8-9 12-5 11-3 10-1 9 76 1v1l-62 1-5 2-3 1-2 4-10 10-7 11-5 10-2 5 1 7-2-2-5-18-1-8v-26l3-15 5-15 8-14 8-10 9-9 14-9 11-5 9-3z" fill="#628BD5"/>
<path transform="translate(187,648)" d="m0 0 5 4 9 11 1 2-7 8-12 9-16 8-14 4-15 2h-18l-16-2-16-5-2-1v-2l-6-2-3-3 5-5 5-2 2-2 5-4h9l13 3h28l15-4 12-6 12-9z" fill="#052E7E"/>
<path transform="translate(839,546)" d="m0 0 4 1 1 4-6 8-5 10-4 14-1 9v16l3 16 5 13 4 6v5l1 2h-2v8l-2 5-1 7-3 1-6-3-9-10-9-15-6-18-2-11-1-16 2-1 3-5 4-5 5-12 1-5h2l4-12 5-5 9-6 4 1z" fill="#471289"/>
<path transform="translate(1099,755)" d="m0 0h14l11 4 8 6 6 8 4 10 1 13-1 1h-62l2 9 6 9 9 5 7 2h9l10-3 9-6 5 5-1 4-6 5-9 4-4 1h-17l-10-3-9-6-8-9-4-11-1-12 3-14 6-10 10-8zm4 9-10 3-8 7-4 6-1 9h51l1-4-4-9-6-7-8-4z" fill="#4A138C"/>
<path transform="translate(530,462)" d="m0 0h1v141l-3 2-1-7h-2l-2-5h-4l-1-3-2 1v5h-2l-2 3-4 1-1-3v-45l1-1 1-11 2-2 5-30 1-5 1-9 4-11-1-3 2-2 1-3 1-1-1-2 4-8z" fill="#1B3552"/>
<path transform="translate(375,588)" d="m0 0h2l1 3 2-1 15 26 6 10 4-5 2-3 4-1 5 2 9-3 2-1 5-4 5-5 1 5-15 26-15 25h-13l-4-5-17-29-8-13 1-5 5-13z" fill="#1D3959"/>
<path transform="translate(739,755)" d="m0 0h14l12 4 8 6 6 7 3 5 3 13v8l-3 12-6 9-7 7-7 4-8 2h-17l-11-4-9-7-6-9-3-8-1-5v-11l4-13 4-6 5-5 5-4 10-4zm5 9-9 2-9 6-6 9-2 8v9l3 10 4 6 6 5 11 4h7l10-3 8-6 6-12v-17l-5-10-5-5-4-3-5-2z" fill="#0F50C9"/>
<path transform="translate(293,557)" d="m0 0 2 1 1 26v110h-25l1-45 4-11 3-10 1-4v-3l2-13 3-12 7-35z" fill="#012C79"/>
<path transform="translate(1011,755)" d="m0 0h13l10 3 10 9 3 6 2 8v50h-11l-1-48-3-9-4-5-7-3h-15l-10 5-4 5-3 7-1 12v35l-1 1h-10v-75h10v11l10-8 8-3z" fill="#B23FAA"/>
<path transform="translate(806,755)" d="m0 0h8l1 1 1 11 4-5 9-5 7-2h14l10 3 9 8 4 8 2 11v46h-11l-1-48-3-9-5-5-7-3h-13l-9 4-5 5-4 8-1 7-1 41h-10v-75z" fill="#2764D6"/>
<path transform="translate(115,503)" d="m0 0h15l18 3 16 6 10 6 2 10 1 8v11l-1 2-5-2-10-9-14-7-10-3-7-1h-24l-1-3v-16l3-4z" fill="#084BC7"/>
<path transform="translate(270,443)" d="m0 0h15v11l2 30v16l-3 22-6 22-5 12-1 5-1 82h-1z" fill="#487FD6"/>
<path transform="translate(476,536)" d="m0 0h2l-3 12-16 27-15 26-5 8-3-1-8 7-3 3-5 2h-4l-5-2h-3l2-5 13-23 7-12 3-1 5-7 2-1 4-5 5-3 4-5h2v-2l8-7 3-1 5-5z" fill="#457CD6"/>
<path transform="translate(509,443)" d="m0 0h22l1 7-1 12-4 5-2 6 1 2-2 1-1 4v4l-3 7-2 12-1 7-4 22-1 7-3 7v6h-2v102l1 38 23 1v1h-25l-1-1v-196h1l1 21 1-12 1-3-1-5 2-8-2 1 2-8-2-4 2-1-4-4 2-2-1-2v-7l1-5-2-6 3-7z" fill="#3059D3"/>
<path transform="translate(210,586)" d="m0 0 2 2 1 17-1 3-91-1-14-1-1-2 15-10 5-4 7-1h32l5 3 4 5 7 3 8 1 4-3h3l1-2 7-6 3-1z" fill="#012C7A"/>
<path transform="translate(825,593)" d="m0 0 1 3 1 22h2l7 19 4 6v5l1 2h-2v8l-2 5-1 7-3 1-6-3-9-10-9-15-2-11 1-4 3-3 3-7 5-9 3-10z" fill="#360C6B"/>
<path transform="translate(1007,652)" d="m0 0 14 8 17 7 18 4 10 1h22l-2 2-16 1-33 11-7 2-4 1-13-5-14-8-4-4 8-15z" fill="#7124CC"/>
<path transform="translate(295,521)" d="m0 0h1v63h-1l-1-24-2 7-5 24-2 11-2 7-1 9-2 5v3l-1 6-3 10h-2l-1 7-1 35-1 9h-1v-50l1-37 1-12 4-8 3-9 5-23 7-25z" fill="#0448C7"/>
<path transform="translate(1097,506)" d="m0 0h10l17 5 12 5 7 4-1 6-9 16-5-2-14-7-14-4-10-3-10-2 3-5 4-4 2-1v-2h2l1-4z" fill="#390E6E"/>
<path transform="translate(611,665)" d="m0 0 8 1 5 6h2l3 3h2v2l12 2 9-3 2-1 21-1 11-2-1 2h-2l1 3-6 6h-2l-3 3-10 4v4l21-1v1l-15 2h-17l-14-2-15-5-12-7-7-7v-6l6-2z" fill="#4B148D"/>
<path transform="translate(902,725)" d="m0 0h10v106h-10z" fill="#1F5BD4"/>
<path transform="translate(747,613)" d="m0 0 2 4v76h-23v-29l4-2 3-3 3-1 5-11 2-6-1-5 2-7-1-3h3l-2-4h2l-1-4z" fill="#340B67"/>
<path transform="translate(891,503)" d="m0 0h15l8 1v1l-23 1-5 1-2 5-7 5-5 6-7 5h-2l-1 2-6 3-10 2h-7l-12 4-8 8-5 6-4 9-2-1 2-7 9-14 9-10 9-8 13-8 17-7 14-3z" fill="#8E4CC8"/>
<path transform="translate(60,632)" d="m0 0 3 1 7 12 8 9 10 7 12 6-4 2-4 3-5 3-6 3-3 3v2l6 2 2 2-5-1-14-8-10-9-2-4 1-5 2-6 1-19z" fill="#094BC8"/>
<path transform="translate(106,504)" d="m0 0 2 1-2 5v15l1 3-12 4-10 5-10 8-9 12-4 7-2-4 2-8 3-4-1-2h3l3-10 1-4 4-6h2v-3l-2 1-1-5 3-5 11-5 9-3z" fill="#4A80D6"/>
<path transform="translate(739,755)" d="m0 0h14l12 4 3 3-3 1-3 6-8-3-10-1-9 2-9 6-5 8-2 8v9l1 7-6 1-2 6-3-4-2-9v-11l4-13 4-6 5-5 5-4 10-4z" fill="#4D82D6"/>
<path transform="translate(1107,667)" d="m0 0 2 1-8 4-7 6-6 5-9 5-6 3-3 2h20l13-1-4 2-16 2h-21l-21-3-12-3-1-2h2l1-2 13-3 23-8 3-1 17-1 6-2z" fill="#49148B"/>
<path transform="translate(706,663)" d="m0 0 6 1 4-1 5 4-1 7h-2l-1 3-11 8-12 6-7 2-11 1h-13l-1-4 4-2 2-2h2l3-3h2l2-2h2l2-2 2-3v-2l16-8h6z" fill="#380D6D"/>
<path transform="translate(940,756)" d="m0 0h11v75h-11z" fill="#B23EAA"/>
<path transform="translate(204,560)" d="m0 0 4 2 3 9 2 9 1 9v18h-2l-1-19-4 2-8 5-3 3-8 4-8-1-6-3-6-5-3-4 24-1 2-5 6-9 5-13z" fill="#084AC7"/>
<path transform="translate(1086,504)" d="m0 0h9l9 2-4 1-6 1-1 2h-2v2h-2l-1 4h-2l-1 3h-2l-2 4 10 2 1 2h-27l-18 1 3-7 3-1 1-5 2-1v-2l6-6 2-1z" fill="#7022CC"/>
<path transform="translate(1059,586)" d="m0 0h8l25 5-2 2-6-1-3 7-4 7-2 4 8 2v1l-12-1-23-5-6-4 1-2 5-4 7-6 1-4z" fill="#7224CB"/>
<path transform="translate(115,503)" d="m0 0h15l18 3v1h-8l-2 5-5 8-1 4 4 3h-30l-1-3v-16l3-4z" fill="#2160D6"/>
<path transform="translate(270,443)" d="m0 0 3 2 1 8 2 7 2 13 1 7 1 20-2 15-2 11-3 9-2 17h-1z" fill="#7394D4"/>
<path transform="translate(620,514)" d="m0 0 6 1 2 4v3h-2v3l2 1v4l-3 6-4 4-10 7h-4l-10-16 2-4 5-4 14-8z" fill="#9253C8"/>
<path transform="translate(869,770)" d="m0 0 1 4 4 4 1 7v46h-11l-1-48-1-6 2-3 1-3z" fill="#205FD6"/>
<path transform="translate(1099,755)" d="m0 0h14l4 2-7 3v3l3 2h-10l-10 3-8 7-4 8-1 6h15v1h-16l-3 5-4 2-2 6h-1l-1-12 3-14 6-10 10-8z" fill="#7527CA"/>
<path transform="translate(1040,768)" d="m0 0 6 2 3 11v50h-10l-1-49-1-10z" fill="#7428CC"/>
<path transform="translate(953,645)" d="m0 0 11 7 8 6-4 7-6 7-7-2h-11l-17-3 4-3 13-9z" fill="#7325CB"/>
<path transform="translate(301,461)" d="m0 0 4 1 11 19-3 9v3l-1 9-2 7v8l-4-4-8-14v-10l2-26z" fill="#084AC6"/>
<path transform="translate(452,577)" d="m0 0 3 2-1 5-15 25-3-1-8 7-3 3-5 2h-4l-5-2h-3l2-5 5-8 5-2 3 1 6-5 4-2 3-5 4-2 4-5 3-3h2l1-3h2z" fill="#1E5DD5"/>
<path transform="translate(817,772)" d="m0 0h3l-1 6-2 5-1 7-1 41h-10v-53l2 2z" fill="#0A4DC9"/>
<path transform="translate(1114,757)" d="m0 0h6l10 6 7 8 4 10v15h-22l-5-1 1-4 4-1 13-1-4-12-6-7-14-7 2-5z" fill="#370D6B"/>
<path transform="translate(1097,506)" d="m0 0h10l17 5-2 2h-3l-1 2-5 1v2h-2l-2 4-4 4 1 1 2 1v2l-13-2-5-2-10-2 3-5 4-4 2-1v-2h2l1-4z" fill="#471189"/>
<path transform="translate(1084,591)" d="m0 0 18 2 14 4-4 1-5-1-3 2-3 7-2 5 3 6h2l-1 2-15-4-5-1v-2l-6-1-2-1 2-7 4-6z" fill="#48128A"/>
<path transform="translate(1131,813)" d="m0 0 6 5-1 4-6 5-9 4-4 1h-17l-10-3-5-3-2-6 2-4h5l7 4 7 2h9l10-3z" fill="#3C1072"/>
<path transform="translate(55,588)" d="m0 0 16 1-8 4-2 4-10 10-7 11-5 10-2 5 1 7-2-2-5-18v-10l3-1 3-4 4-1v-2l5-2v-2h2l2-5z" fill="#477FD6"/>
<path transform="translate(527,445)" d="m0 0h4l1 5-1 12-4 5-2 6 1 2-2 1-1 4v4l-3 7-2 12-1 7-4 22-1 7-3 7v6h-2v-17l1-7 3-9 1-9 1-5-1-3h2v-10l2-10 1-4 1-8 3-7 2-10 3-7z" fill="#0547C0"/>
<path transform="translate(508,444)" d="m0 0 2 2-3 7 2 5-1 8v5 3 2l3 3-2 2 2 4-1 3v1l2 2-2 1-1 10 1 2-1 7-2 23h-1v-37l-4 4-4-1v-5l2-7-1-4v-3-5l1-2-2-1-1-7 4-10z" fill="#437BD6"/>
<path transform="translate(106,589)" d="m0 0h22l-5 4-9 7-7 5 14 1v1h-43l-3-1v-2l7-4 17-6 3-1v-2z" fill="#0448C6"/>
<path transform="translate(611,665)" d="m0 0 8 1 5 6h2l3 3h2v2l12 2 9-3 2-1h9l3 2-9 1-3 3h-2l-1 2-3 1h-4l-2 2h-7l-6-2-2 1-3-3-3-1v-2l-3 1-2-1v5l-5-2-7-7v-6l6-2z" fill="#7022C9"/>
<path transform="translate(295,594)" d="m0 0h1v99h-15l-3-2 1-4 3-7 2-6 3-3v-5l5-5-1-4h3z" fill="#183652"/>
<path transform="translate(911,773)" d="m0 0h1v58h-9v-44l1-3h2v-4h2l-1-3h3z" fill="#461188"/>
<path transform="translate(910,681)" d="m0 0 6 2h8l2 2h3 6l-1 5-6 2-24 3-16-1-4-2 2-5 5-1 6-2 2-2h6l4 1z" fill="#350B6A"/>
<path transform="translate(746,558)" d="m0 0 1 4 3 1v30h-1v-10h-2l-2 5-6 12-2 6-3 6-3 9-1 4-2 7-4 9-1-3 1-31h1l1 5h2v-5h2l2-5 1-4h3l1-6h2v-6l2-5 2-2 1-5 1-2v-10z" fill="#7528C8"/>
<path transform="translate(1007,652)" d="m0 0 14 8 17 7 12 3-4 1-11-1h-8l-8 1-10-1-9-1-2 4-2 1-1-3 10-17z" fill="#904DC8"/>
<path transform="translate(765,762)" d="m0 0h5l8 8 4 7 2 7v6l-5 1v2l-3 1-2 7h-1l-1-16-5-10-5-5 1-5z" fill="#2764D6"/>
<path transform="translate(1016,756)" d="m0 0h5v2h2v-2l8 1 7 4 6 6v2l-5 1v2h-2l2 10v49h-1l-1-48-3-9-4-5-9-4-8-1 1-3 3-3z" fill="#904DC8"/>
<path transform="translate(901,518)" d="m0 0h12l7 2 7 4v2l3 1v2h2v2h2l1 3h-6l-10-4-11-3-3-1h-17l4-4h3v-2z" fill="#4A138C"/>
<path transform="translate(986,795)" d="m0 0 2 2 1 30 1 3-1 1h-10v-15l1-16 4-4z" fill="#461088"/>
<path transform="translate(902,725)" d="m0 0h10v15l-1 5h-1v-5l-2 5-3 1-1 2-1 83h-1z" fill="#5974D4"/>
<path transform="translate(444,591)" d="m0 0 2 1-1 7-6 10-3-1-8 7-3 3-5 2h-4l-5-2h-3l2-5h3l1-2 4 1h3l1-2h2l4-4 4-2 3-3 2-3 4-3 2-3z" fill="#0849C1"/>
<path transform="translate(866,800)" d="m0 0 5 1v2l2 1 1 8v19h-10l1-27z" fill="#431184"/>
<path transform="translate(716,804)" d="m0 0 4 1 6 9 5 4 7 3v1h-6l-4 6-5-2-7-6-4-6v-5l2-3h2z" fill="#2764D6"/>
<path transform="translate(1114,757)" d="m0 0h6l10 6 7 8v2h-2l-1-2-6 6-6-7-14-7 2-5z" fill="#4E168F"/>
<path transform="translate(813,800)" d="m0 0 1 4 1 27h-10v-15l2-12 3-1z" fill="#032D75"/>
<path transform="translate(1045,804)" d="m0 0h3v27h-9v-20l4-5h2z" fill="#451087"/>
<path transform="translate(950,805)" d="m0 0h1v26h-10v-13l1-4 5-4z" fill="#440F86"/>
<path transform="translate(947,790)" d="m0 0h2l2 7-1 16-2-3-4 4h-2l-1 4v-18l2-7h2z" fill="#6D21C7"/>
<path transform="translate(942,725)" d="m0 0h7l4 4v6l-3 4-6 1-4-2-2-3v-6z" fill="#3564D5"/>
<path transform="translate(986,788)" d="m0 0 3 3 1 4v33l-2-1-1-30h-3l-3 3h-1v-6l5-5z" fill="#792DCB"/>
<path transform="translate(941,756)" d="m0 0h10v41l-2-3v-32l-6 5-2 2z" fill="#9753C5"/>
<path transform="translate(530,462)" d="m0 0h1v17l-3 3-6 1-1-3 2-2 1-3 1-1-1-2 4-8z" fill="#113461"/>
<path transform="translate(866,800)" d="m0 0 5 1v2l2 1-1 9-4 5-3 2v-16z" fill="#1D355D"/>
<path transform="translate(874,788)" d="m0 0h1v43h-1l-1-21-1-6h-3l1-3-2-4 2-1v-2h3z" fill="#3A57D2"/>
<path transform="translate(869,784)" d="m0 0h3l1 2v8h-3l1 5-4 2-2 3v-13l2-5h2z" fill="#0748C0"/>
<path transform="translate(857,661)" d="m0 0 16 7 3 2-4 1-4-1-1 2-7-1-2-6-2-3z" fill="#772AC8"/>
<path transform="translate(496,467)" d="m0 0 3 3-1 3 3 1-2 7 2 1v4l-4 1-2-3 1-4-3-2 2-7z" fill="#5484D6"/>
<path transform="translate(805,816)" d="m0 0h1l1 9 2-2 5-2 1 10h-10z" fill="#193752"/>
<path transform="translate(296,495)" d="m0 0 3 3h-2v53h-1l-1-54z" fill="#5F89D6"/>
<path transform="translate(726,591)" d="m0 0h2l1 3-3 4-2 4-3 3h-2l-1-6 4-2 2-4h2z" fill="#A047BA"/>
<path transform="translate(813,800)" d="m0 0 1 4-1 5-2 2-4-2v-5l3-1z" fill="#01328D"/>
<path transform="translate(516,590)" d="m0 0h2l1 2 4-1 1 7-5-3-2 4-2-8z" fill="#30236C"/>
<path transform="translate(530,590)" d="m0 0h1v13l-3 2-2-11h2v-2h2z" fill="#1F3157"/>
<path transform="translate(295,656)" d="m0 0h1v6l-4 4-2-1 2-5v-3l2 1zm-6 9 1 2-3-1z" fill="#143458"/>
<path transform="translate(527,474)" d="m0 0h1l1 8-7 1-1-3 5-4z" fill="#0C326B"/>
<path transform="translate(907,777)" d="m0 0h3v6l-5 6h-1v-5h2v-4h2z" fill="#3E2EA7"/>
<path transform="translate(1084,761)" d="m0 0 2 1-13 13 2-5 5-6z" fill="#8C3BC3"/>
<path transform="translate(1014,755)" d="m0 0h10l-1 3h-2l-1 2-1-3-1 1-1 2-4-2z" fill="#A943B3"/>
<path transform="translate(884,692)" d="m0 0 4 1 16 1v1h-21l-1-2z" fill="#451087"/>
<path transform="translate(903,726)" d="m0 0h8l-1 3h-2l-1 2-4-2z" fill="#2D6AD7"/>
<path transform="translate(476,536)" d="m0 0h2l-1 4h-2zm-3 2 2 3-3 3v-4zm-4 4 2 1-1 2-2 1z" fill="#4E81D6"/>
<path transform="translate(952,731)" d="m0 0 1 4-3 4-6 1-2-2 5-1 3-3h2z" fill="#9970CC"/>
</svg>
